Let's Dance for Comic/Sport Relief is a British television programme shown on BBC One, featuring celebrities performing famous dance routines to raise money for the charities Comic Relief and Sport Relief.[1] The programme is currently presented by Steve Jones and Alex Jones, who replaced previous host Claudia Winkleman in 2011. In the first series, Anton du Beke was a regular judge, appearing alongside two guest panellists, but in the second series onwards, three guest judges were on the panel each week.


General
Complete name :Lets.Dance.For.Comic.Relief.S05E03.PDTV.x264-W33D.mp4
Format : MPEG-4
Format profile : Base Media
Codec ID : isom
File size : 820 MiB
Duration : 1h 21mn
Overall bit rate mode : Variable
Overall bit rate : 1 414 Kbps
Writing application : Lavf52.64.2

Video
ID : 1
Format : AVC
Format/Info : Advanced Video Codec
Format profile : High@L3.0
Format settings, CABAC : Yes
Format settings, ReFrames : 4 frames
Codec ID : avc1
Codec ID/Info : Advanced Video Coding
Duration : 1h 21mn
Bit rate : 1 234 Kbps
Width : 688 pixels
Height : 384 pixels
Display aspect ratio : 16:9
Frame rate mode : Constant
Frame rate : 25.000 fps
Color space : YUV
Chroma subsampling : 4:2:0
Bit depth : 8 bits
Scan type : Progressive
Bits/(Pixel*Frame) : 0.187
Stream size : 715 MiB (87%)

Audio
ID : 2
Format : AAC
Format/Info : Advanced Audio Codec
Format profile : LC
Codec ID : 40
Duration : 1h 21mn
Duration_LastFrame : -21ms
Bit rate mode : Variable
Bit rate : 174 Kbps
Channel(s) : 2 channels
Channel positions : Front: L R
Sampling rate : 48.0 KHz
Compression mode : Lossy
Delay relative to video : 200ms
Stream size : 101 MiB (12%)



